<svg version="1.2" baseProfile="tiny-ps" xmlns="http://www.w3.org/2000/svg" viewBox="0 0 341 160" width="341" height="160">
	<title>&lt;Group&gt;</title>
	<style>
		tspan { white-space:pre }
		.shp0 { fill: #373737 } 
	</style>
	<path id="&lt;Path&gt;" fill-rule="evenodd" class="shp0" d="M266.68 132.65C266.81 132.46 267.37 131.31 267.45 131.48C267.6 131.18 267.04 132.53 266.68 132.65ZM271.39 131.28L271.98 130.43C271.79 130.38 271.49 130.66 271.01 131.3C271.25 130.66 271.68 130.5 271.82 129.9C269.4 132.81 271.81 126.8 270.18 128.86C271.62 126.31 272.09 123.4 273.53 121.58L273.1 121.75C274.11 120.09 273.96 122.16 275.08 120.46L274.96 122.7C275.28 122.04 275.94 121.17 275.92 120.88C276.15 120.96 276.38 120.97 276.6 119.9C276.28 125.32 280.63 122.26 281.37 125.64C281.59 125.56 281.84 124.92 282 124.49C281.48 126.33 282.81 123.82 283.14 123.7L282.4 126.36C283 125.77 283.22 124.96 283.49 124.49C284.76 124.57 284.5 127.41 286.08 126.45C285.89 127.44 284.99 128.32 285.18 128.8C285.99 126.22 286.74 128.03 287.35 126.54C286.47 129.01 288.32 127.64 286.28 131.07C286.58 131.51 287.45 129.72 287.51 129.33C287.91 129.73 288.29 129.96 289.29 129.04C289.1 130.02 291.93 129.34 290.96 132.2C291.59 130.38 291.46 131.37 292.15 130.76L292.73 129.07L293.27 129.58C293.48 129.5 293.48 129.58 293.41 129.73C293.47 129.86 292.9 130.61 292.96 131.15C293.34 131.48 293.82 130.64 294.49 129.96L294.55 129.7L294.92 129.71C295.11 129.87 293.32 130.84 293.6 132.01C293.84 131.59 295.36 129.77 294.94 130.98C294.63 130.71 294.09 131.82 293.97 132.34L294.15 132.5C294.21 132.42 294.27 132.33 294.33 132.23C294.28 132.35 294.24 132.45 294.21 132.55L294.41 132.73L295.31 130.67C296.5 131.44 297.22 133.18 298.42 134.1C298.46 134.03 298.51 133.95 298.57 133.86C298.76 133.85 298.73 134.01 298.63 134.25C298.71 134.3 298.8 134.36 298.89 134.4C298.95 134.31 299.01 134.22 299.06 134.14C299.02 134.23 298.98 134.33 298.94 134.43C298.97 134.44 299 134.46 299.04 134.47C298.41 135.6 299.06 135.54 299.15 136.06C299.82 134.71 300.4 133.49 300.69 132.75C301.3 131.7 300.41 134.07 300.5 134.27C300.12 135.82 301.21 134.33 301.7 134.05C302.5 133.13 302.68 133.67 302.83 134.37C303.3 133.99 303.79 133.69 304.34 132.62L305 133.66C304.85 133.65 304.25 133.88 303.95 134.79C304.38 134.92 304.04 135.15 303.92 135.93C304.35 135.82 304.56 136.16 304.69 136.58C304.71 136.56 304.74 136.54 304.76 136.52C304.74 136.54 304.72 136.57 304.69 136.59C304.82 137.02 304.86 137.54 304.96 137.75C305.25 137.48 305.47 137.37 305.58 137.57L305.69 136.72C306.02 136.52 306.3 137.5 306.55 136.87C306.47 137.11 306.34 137.44 306.19 137.79C306.45 137.68 306.6 137.78 306.74 138.09L307.05 137.72C306.99 137.8 306.89 137.96 306.77 138.16C306.82 138.28 306.87 138.43 306.92 138.6C306.81 138.78 306.57 139.06 306.5 139.35C306.87 138.74 307.21 138.12 307.3 137.83C307.19 138.27 307.13 138.56 307.09 138.78C307.41 138.44 307.71 138.18 307.97 138.14C307.97 138.13 307.97 138.12 307.97 138.11C308.07 138.05 308.15 138 308.22 137.96C308.19 137.56 308.16 137.17 308.11 136.78C308.04 136.18 307.94 135.59 307.82 135C307.69 134.42 307.51 133.85 307.33 133.28C306.96 132.14 306.52 131.03 306.07 129.93C305.63 128.82 305.11 127.74 304.59 126.67C304.09 125.59 303.6 124.51 303.18 123.41C302.33 121.21 301.57 118.99 301.46 116.48C301 115.99 300.32 116.7 299.86 117.17C301.44 114.57 297.99 116.24 297.28 115.56C298 114.31 298.72 113.04 299.42 111.75C298.02 111.31 297.39 112.51 296.71 112.76C295.41 110.79 294.86 108.47 294.29 106.25C294.14 105.7 293.99 105.16 293.81 104.64C293.62 104.13 293.39 103.64 293.14 103.19C292.62 102.28 291.95 101.5 291.01 100.95C291.49 99.23 293.64 99.72 293.19 98.08C292.16 100 291.21 99.18 290.28 98.27C289.42 97.43 288.61 96.47 287.93 97.3C288.91 95.72 288.34 94.46 288.06 93.32C287.77 92.1 287.71 91.06 290.18 89.8C289.3 87.99 287.33 89.79 287.25 90.53C286.1 88.57 285.12 87 282.61 86.57C282.74 85.7 280.92 83.85 279.3 81.73C277.63 79.69 276.18 77.37 277.01 75.26C275.9 77.94 275.92 75.98 274.17 75.78L273.18 78.2L271.42 75.85C270.85 75.55 270.82 75.36 270.98 75.22C270.73 74.77 272.07 74.41 271.66 73.05C270.43 71.44 269.39 72.27 267.75 72.31L267.71 72.77L266.61 71.96C265.96 71.18 270.77 72.89 269.36 69.7C268.85 70.1 265.29 70.89 265.9 69.09C266.96 70.37 268 69.08 268.06 68.15L266.54 66.33L264.97 68.99C260.39 64.2 256.61 57.92 250.82 53.56C252.52 51.56 246.83 50.36 249.66 47.69L249.66 48.15C251.33 48.95 251.07 45.42 249.61 44.86C250.11 46.77 245.15 46.3 247.77 49C246.66 48.9 245.55 48.82 244.41 48.78C241.62 51.32 240.22 50.16 238.86 48.25C237.49 46.4 236.07 43.86 233.66 43.71C234.06 43.63 234.33 43.34 234.49 43.16C232.27 43.15 230.69 41.7 229.5 40.24C228.32 38.77 227.45 37.43 226.78 37.74L227.45 35.8C223.07 37 222.71 37.01 219.76 34.22C219.95 33.95 220.61 33.62 220.24 32.97C218.73 33.92 217.29 34.81 215.06 33.36L215.43 32.83L211.51 31.49C212.74 28.63 210.73 28.76 208.58 28.91C206.44 29.03 204.24 29.06 204.81 25.66C203.4 27.1 200.36 26.67 198.82 27.06C198.9 26.81 198.91 26.52 198.79 26.17C197.52 27.49 196.53 26.92 195.6 26C194.67 25.06 193.81 23.76 192.91 23.7C191.59 24.14 191.79 25.31 191.97 26.47C191.26 24.85 189.55 25.21 188.01 25.79C186.46 26.36 185.08 27.18 184.81 26.54C183.3 25.9 184.75 24.06 184.62 22.61C182.09 22.71 183.82 28.2 181.17 25.14C181.59 24.95 182.31 24.87 182.12 24.46C181.57 24.08 181.11 22.03 180.55 20.21C180 18.4 179.36 16.79 178.6 17.4C178.82 17.8 179.03 18.23 179.24 18.65C177.95 19.22 176.81 17.79 175.82 16.67C174.83 15.57 174.01 14.81 173.53 16.87L173.47 18.84C171.67 17.23 171.2 17.42 170.75 17.59C170.29 17.78 169.83 18 167.92 16.65L168.01 16.34C166.2 16.53 165.43 13.97 164.31 17.07L164.88 17.53C162.67 17.64 162.5 17.4 160.27 17.1C159.99 17.39 158.9 17.79 158.61 17.11C158.41 19.7 153.43 18.23 152.42 18.05C154.18 17.7 153.36 16.57 152.85 15.5C151.79 17.6 151.11 17.86 149.62 16.36C149.48 19.61 149.27 23.08 146.55 23.35C146.96 22.85 147.62 22.56 147.32 21.9C147.01 21.23 146.39 21.98 146.19 22.23C145.88 21.57 146.75 21.03 146.39 19.91C145.51 21.48 144.72 21.59 143.79 21.47C142.87 21.34 141.81 20.97 140.5 21.62C141.28 20.58 140.49 20 140.08 18.91C140.12 20.75 139.12 20.01 138.27 19.43C137.42 18.86 136.74 18.4 137.51 20.7C136.1 20.15 134.53 19.96 132.93 19.94C131.34 19.91 129.74 20.2 128.23 20.38C125.21 20.73 122.64 21.21 121.28 19.91C120.44 18.72 119.38 21.14 118.47 21.39L118.24 19.79C116.3 23.28 116.44 21.35 114.14 24.96C114.91 22.79 114.19 22.06 112.52 20.91C112.1 22.15 111.69 23.42 111.31 24.71L110.24 22.42C109.66 23.6 108.62 23.51 107.57 23.41C107.54 24.71 106.83 25.56 106.08 26.26C105.21 27.11 104.27 27.76 104.25 28.63C102.28 25.73 102.12 30.25 100.43 27.48C100.28 28.02 100.03 28.51 99.72 28.96C100.65 30.2 101.35 31.7 100.32 31.31C100.26 31.37 100.21 31.38 100.15 31.43L99.14 29.72C98.48 30.46 97.73 30.99 97.2 31.23C97.5 31.29 97.92 31.53 98.37 31.83C97.92 31.69 97.47 31.47 97.04 31.3C96.93 31.34 96.82 31.37 96.74 31.38C96.77 31.31 96.82 31.26 96.89 31.23C96.23 30.99 95.62 30.97 95.16 31.86C93.17 30.97 92 32.66 90.76 34.14C90.14 34.88 89.5 35.6 88.72 35.97C87.95 36.36 87.05 36.44 85.86 35.85C86.49 36.02 87.21 35.89 87.09 35.17C85.86 35.85 84.32 35.86 82.95 35.97C82.26 36.02 81.62 36.09 81.09 36.3C80.57 36.51 80.17 36.85 79.94 37.39L80.88 38.96C79.43 40.65 78.31 41.88 76.81 42.55L77.72 44.41C76.51 44.66 75.21 46.14 73.81 47.18C72.39 48.19 70.94 48.89 69.19 47.45C69.57 49.17 66.12 48.75 65.29 49.99L64.13 48.86C62.37 49.43 61.77 50.51 61.16 51.49C58.7 51.11 57.3 52.2 56.16 53.49C55.01 54.79 54.16 56.35 52.87 57.26L52.57 56.92L50.77 59.79C50.52 58.16 50.9 60.94 49.91 61.24C49.64 62.49 48.15 63.24 46.57 63.25L44.97 64.51C45.98 62.23 43.34 62.9 42.01 61.63C42.01 62.28 42.02 62.96 42.02 63.62C41.04 63.33 41.69 61.97 40.7 62.35C40.71 63.68 38.75 65.43 39.46 67.35C39.87 67.59 40.4 67.69 40.93 67.69C40.93 67.53 40.95 67.55 40.98 67.69C41.02 67.69 41.07 67.7 41.11 67.7C41.06 67.71 41.04 67.71 40.99 67.73C41.03 67.94 41.12 68.28 41.23 68.5C39.77 69.3 40.72 69.44 41.34 70C38.21 69.25 38.63 71.11 35.83 70.16C38.69 71.43 32.5 73.08 35.77 74.65C32.76 73.67 35.05 75.24 32.65 74.2C34.51 73.29 33.98 70.12 34.22 68.09L31.88 67.99C30.28 64.97 35.2 66.31 35.11 64.9C35.18 65.83 33.82 66.29 33.21 65.93L35.18 67.33C37.42 66.44 37.39 63.88 37.72 61.86C36.04 62.29 38.05 59.5 36.05 58.95L35.36 60.01C34.35 59.75 34.7 58.38 34.71 57.37C36.72 56.68 38.85 54.96 40.74 53.43C42.61 51.87 44.36 50.66 45.51 50.99C44.5 50.99 43.71 52.32 43.64 53.31L45.7 53C44.61 53.95 42.31 52.99 41.21 55.05C42.51 56.02 42.76 58.66 45.39 59.28C47.7 58.92 47.65 57.61 47.59 56.06C47.52 54.5 47.4 52.68 49.51 51.38C49.57 50.72 50.29 54.05 51.81 51.79C53.46 48.61 53.34 44.22 51.36 41.42C50.77 43.1 49.69 46.39 47.84 44.66C48.39 43 50.04 41.03 49.21 39.64C52.1 41.1 47.51 41.95 50.5 42.74C51.27 42.09 51.07 41.07 51.17 40.39C51.31 41.75 53.06 41.5 53.7 41.9C55.05 41 56.28 40.55 57.55 40.11C58.19 39.89 58.83 39.67 59.51 39.41C60.19 39.17 60.91 38.87 61.67 38.47C62.05 38.73 62.86 39.31 63.15 39.96C64.12 38.42 63.95 33.44 62.5 32.24C64.17 31.08 64.97 32.24 66.06 30.7C62.38 29.82 66.74 30.8 65.63 28.24C67.01 27.06 66.82 29.1 67.84 29.26C67.95 28.85 68.12 27.7 67.8 27.02C69.74 28.33 68.65 32.86 70.93 34.38C72.42 35.25 76.93 36.07 77.24 36.14C76.85 33.69 72.24 25.19 69.64 23.03C69.01 21.53 71.95 23.77 72.72 23.57C75.88 24.84 74.92 20.2 77.09 20.3L76.42 22.24C76.99 22.71 79.13 20.75 79.14 19.7C79.57 20.51 79.82 24.57 81.05 25.2C81.85 24.96 82.49 24.4 82.99 23.68C83.51 22.97 83.88 22.08 84.12 21.15C84.6 19.27 84.54 17.18 83.91 15.96C82.67 17.54 81.42 19.03 80.26 20.65C79.71 19.66 80.29 18.72 80.9 17.78C81.49 16.85 82.08 15.85 81.43 14.64L86.25 13.47C85.71 13.78 84.23 15.11 85.39 15.99C87.26 15.07 86.53 15.92 88.21 16.4C87.64 18.17 87.1 21.23 86.75 24.26C86.4 27.31 86.24 30.33 86.33 32.25C86.81 31.45 87.32 30.71 87.82 29.93L88.88 30.94C89.9 29.53 90.18 26.49 90.25 23.46C90.32 20.47 90.18 17.52 90.15 16.27C92.09 16.15 93.2 20.95 93.15 21.98C96.49 20.98 94.03 14.23 97.76 13.73L96.1 13.16C96.78 12.46 100.09 12.39 99.49 11.64C100.5 12.56 101.89 14.93 101.71 16.11C102.21 14.43 102.75 12.8 103.32 11.16C103.14 11.96 104.46 15.35 104.47 16.04C105.66 15.84 105.33 11.54 104.46 10.8C107.52 12.68 106.57 11.45 109.36 14.04C110 13.57 108.22 10.05 107.57 9.79C108.94 8.3 110.07 8.58 110.95 8.78C108.64 11.09 112.42 17.46 112.65 20.47C113.51 16.25 114.49 12 115.62 7.73C115.56 8.46 115.93 12.21 116.07 12.64C115.91 10.86 117.51 9.56 119.58 8.64C120.62 8.18 121.77 7.82 122.88 7.57C123.99 7.36 125.06 7.25 125.91 7.24L125.42 7.35C124.95 8.63 127.94 9.13 128.93 7.73C128.83 8.46 128.53 8.29 128.04 8.4C129.34 9.52 129.85 8.09 130.42 6.76C130.98 5.43 131.59 4.15 132.92 5.54C130.79 5.46 130.57 6.89 130.86 8.24C132.39 6.8 136.47 7.7 135.21 3.73C136.41 4.45 137.35 3.82 137.45 5.9L141.48 3.17C141.19 3.61 141.01 4.83 142.26 5.02C139.83 4.67 137.91 8.58 136.43 6.08C136.63 8.59 137.61 9.84 136.74 12.08C138.85 11.23 140.45 9.81 141.86 8.09C143.28 6.39 144.52 4.46 145.92 2.98L150.02 4.68L150.17 3.53L150.91 6.41C151.4 5.73 151.71 5.14 151.82 5.42C151.91 5.69 151.79 6.06 151.59 6.5C152.01 6.35 152.39 6.1 152.59 5.8C152.75 7.34 152.05 9.06 151.33 10.67C150.98 10.13 150.61 9.59 150.24 9.09C149.49 10.57 148.99 12.09 150.06 13.02C150.2 12.82 150.39 12.6 150.58 12.38C150.12 13.48 149.85 14.38 150.2 14.8C151.16 14.3 152.12 13.81 153.09 13.38C152.76 12.98 152.26 12.14 151.67 11.19C153.49 9.31 155.72 7.04 154.03 5.05L156.33 6.8C157.73 5.38 158.32 4.82 158.98 4.35C159.65 3.9 160.38 3.56 162.14 2.59C162.27 3.61 161.32 4.41 161.88 5.19C163.2 3.64 164.65 4.68 165.81 5.76C166.98 6.85 167.86 8.03 168.27 6.62C170.29 6.13 169.34 4.21 170.69 3.55C170.59 3.86 170.4 4.48 170.76 4.57L172.51 2.67C173.02 3.48 170.95 3.95 172.53 5.03C174.07 4.38 175.3 3.96 176.44 3.78C177.57 3.62 178.61 3.76 179.73 4.44C183.27 4.49 178.94 0.12 181.81 0.99C181.95 2.74 181.97 4.81 183.71 5.42C184.88 4.46 185.01 3.13 186.8 2.72L186.16 5.25C187.68 5.44 188.99 5.21 188.56 7.15C190 6.36 190.8 6.76 191.33 7.32C193.91 6.53 190.92 1.77 190.57 0.63C192.4 3.1 194.23 2.38 194.72 5.73L192.58 5.92C194.27 8.01 195.48 7.34 196.35 6.94C197.22 6.53 197.76 6.32 197.95 9.26C196.6 8.65 194.56 9.5 195.01 11.13L197.37 10.42C197.41 11.15 196.09 10.55 196.79 11.58C197.52 11.2 199.07 10.25 199.84 9.58L199.76 9.73C200.91 9.94 202.08 10.1 203.22 10.34C202.76 10.38 202.55 11 203.09 11.28L205.89 10.78C204.95 11.16 205.44 12.18 206.36 12.93C209.11 14.7 210.79 8.23 212.24 11.64C211.91 11.45 211.74 11.74 211.41 11.55L212.21 13.11C213.32 10.57 215.17 11.14 217.03 11.71C218.87 12.29 220.68 12.97 221.92 10.48C222.77 13.29 221.49 11.74 218.28 13.2L219.47 15.45C218.66 15.33 218.21 14.67 217.22 14.83C218.66 18 222.01 16.25 223.92 15.51C224.48 16.64 221.5 18.95 224.38 19.32C228.4 20.07 225.44 15.34 227.87 15.8L228.18 19.13C230.03 18.81 231.26 19.35 232.25 20.2C233.26 21.03 234.05 22.11 235.09 22.88C235.71 22.95 236.1 22.82 236.38 22.62C237.29 23.79 238.83 23.95 240.38 23.98C241.92 24.03 243.42 24.02 244.08 24.95C243.36 25.2 244.15 27.09 243.98 27.83L247.94 28.33C246.22 28.15 245.41 29.54 244.33 30.7C245.38 31.18 246.33 30.71 247.11 30.95C246.38 31.18 245.66 31.42 245.77 32.37C247.33 32.3 248.93 32.22 250.49 32.22C250.46 31.86 250.15 31.52 249.89 31.24C250.69 31.78 253.01 32.14 253.38 34.03C252.91 34.48 252.19 34.69 251.72 35.15C251.81 33.01 250.38 33.89 249.2 34.57C251.52 35.85 249.5 35.29 249.87 36.97C251.42 37.98 253.32 36.64 253.72 35.24C255.11 36.95 255.35 37.73 258.08 37.71L256.41 39.24L258.42 39.88L255.49 41.08C257.54 44.57 258.39 38.43 260.95 42.03L259.73 43.58C261.44 44 263.98 41.8 263.46 44.42C265.45 44.52 263.11 40.55 266.27 42.62C266.13 43.83 266.76 45.27 267.29 46.3C268.6 46.41 268.25 44.43 267.61 43.8C272.03 46.85 265.65 51 270.98 52.37C270.84 51.27 271.74 50.81 272.31 50.3C272.88 49.78 273.11 49.19 271.55 47.85C273.84 48.28 272.44 52.54 275.37 52.38L272.69 53.29C273.18 53.82 274.4 53.73 274.9 53.78L273.44 55.06C275.51 54.7 276.08 55.78 276.61 56.71C277.14 57.64 277.66 58.38 279.77 57.37C276.54 59.06 281.21 58.56 280.92 60.22C277.71 60.45 276.88 55.94 274.4 58.05C274.38 59.4 276.07 58.9 276.03 60.22C275.25 60.09 274 60.04 273.38 60.32C274.19 63.8 278.11 62.42 280.05 63.23L277.2 61.34C279.72 59.31 278.64 62.04 281.13 60.98C281.02 63.38 283.72 62.69 283.86 64.42C283.65 64.16 283.42 64.3 283.2 64.1C285.63 66.8 282.36 70.92 283.17 72.07C283.72 73.4 286.77 74.33 287.22 72.73C288.65 73.05 283.42 69.64 287.94 68.55C286.76 70.91 287.78 71.43 289.16 72.09C290.55 72.73 292.24 73.59 292.31 76.4C289.75 75.88 290.85 78.97 288.75 78.37C290.35 79.81 290.97 79.44 292.65 79.39L291.82 80.8C296.19 81.08 294.62 79.55 298.58 82.03C296.78 81.53 297.77 84.68 296.26 84.39C296.86 85.41 297.89 86.09 299.11 86.33L298.84 86.32C300.34 87.92 300.42 88.93 300.57 89.82C300.7 90.73 300.97 91.48 302.67 92.75L303.24 91.94C304.43 92.73 305.44 93.75 306.36 94.88C306.82 95.44 307.25 96.04 307.66 96.65C308.06 97.27 308.43 97.92 308.79 98.57C309.52 99.87 310.21 101.2 310.94 102.47C311.68 103.74 312.37 104.99 313.22 106.08L313.07 104.21C313.33 105.05 315.92 106.88 315.42 108.86C315.19 108.59 314.56 108.24 314.54 107.9C313.63 108.38 312.56 109.6 312.86 110.88L314.47 110.69L313.58 111.67C314.34 113.49 315.39 110.22 316.16 112.06C314.34 113.5 315.06 115.48 315.82 117.53C316.53 119.6 317.33 121.72 315.78 123.18C316.03 123.19 316.23 123.18 316.41 123.15C316.51 123.08 316.66 123.03 316.87 123.01C318.15 122.28 315.38 119.61 318.15 119.88C317.92 120.62 317.45 121.09 317.66 122.37L318.28 121.97C318.28 121.95 318.27 121.93 318.25 121.91L318.34 121.93L319.32 121.29C319.33 121.38 319.35 121.47 319.37 121.57L319.67 121.69C319.64 121.49 319.45 121.28 319.29 121.08C320.23 120.98 320.56 120.74 320.6 120.44C320.54 120.41 320.48 120.38 320.41 120.36C320.25 120.43 319.61 120.42 319.12 120.48C319.21 120.35 319.42 120.24 319.87 120.14C319.83 120.13 319.8 120.12 319.77 120.11C319.8 120.12 319.84 120.13 319.87 120.14C319.92 120.13 319.97 120.12 320.03 120.11C320.35 120.22 320.47 120.28 320.45 120.33C320.51 120.34 320.56 120.36 320.61 120.37C320.61 119.83 319.88 119.14 320.09 118.7L320.43 118.78L319.79 117.8C320.79 118.26 319.11 117.47 319.46 117.31C318.96 116.93 319.35 116.61 320.17 116.5L320.35 116.03C320.84 116.59 321.55 116.52 322.44 116.58C322.18 116.24 322.1 115.9 323.09 115.75C322.88 115.47 322.6 115.17 321.92 114.9C321.58 114.84 321.24 114.84 320.95 114.87C321.03 114.92 321.02 114.91 320.93 114.87C320.91 114.87 320.88 114.87 320.85 114.87C320.87 114.87 320.89 114.87 320.9 114.86C320.78 114.8 320.57 114.7 320.4 114.64C320.79 114.33 320.21 114.33 319.6 114.2C321.65 114.27 320.61 113.75 322.52 113.9C322.52 113.9 322.52 113.9 322.52 113.9C320.46 113.63 323.04 112.9 320.52 112.56C322.7 112.75 320.67 112.36 322.52 112.6C322.02 112.83 322.82 113.38 323.62 113.89C323.99 113.89 324.36 113.89 324.69 114.09C324.73 114.01 324.74 113.93 324.71 113.85C324.5 113.67 324.33 113.51 324.37 113.44C324.25 113.35 324.11 113.25 323.95 113.16L324.09 113.23C323.8 112.26 325.28 112.68 324.9 111.96C324.58 112.01 324.3 112.06 324.06 112.05C323.46 111.51 322.98 111.39 322.48 111.25C322.89 111.29 323.36 111.35 323.86 111.42C323.37 110.86 323.26 110.36 323.29 109.88C323.15 109.82 322.99 109.76 322.83 109.7C322.89 110.08 322.88 110.28 322.66 110.39L322.14 109.49L322.16 109.49C322.23 109.51 322.28 109.53 322.35 109.55C322.48 109.65 322.51 109.84 322.82 109.7C322.68 109.65 322.52 109.59 322.35 109.55C322.34 109.54 322.34 109.53 322.33 109.52C322.43 109.51 322.33 109.5 322.16 109.49C322.15 109.49 322.15 109.49 322.14 109.48L322.14 109.49C322.11 109.49 322.09 109.49 322.06 109.48C322.32 109.43 322.55 109.35 322.74 109.26C322.76 109.39 322.79 109.53 322.98 109.73C323.09 109.69 323.2 109.67 323.31 109.67C323.35 109.36 323.43 109.06 323.49 108.76C323.45 108.76 323.37 108.73 323.28 108.7C323.3 108.56 323.25 108.41 323.16 108.26C323.31 108.34 323.45 108.42 323.54 108.49C323.58 108.16 323.58 107.82 323.45 107.47L322.86 107.73C322.95 107.62 322.6 107.25 322.58 106.96L321.74 106.84C321.95 106.77 322.3 106.78 322.6 106.82C322.65 106.71 322.79 106.62 323.07 106.6C323.12 106.68 323.38 106.88 323.28 106.93C323.69 107.03 324.23 107.11 324.67 107.13L324.74 107.07L324.81 107.13C325.09 107.13 325.32 107.09 325.42 107L325.01 106.86L324.74 107.07L323.96 106.45C324.09 106.53 324.25 106.58 324.43 106.63L325.22 106.72C325.34 106.29 323.56 106.44 323.68 106.02C324.59 106.17 325.06 106.11 325.34 105.95C325.22 105.87 325.11 105.8 325 105.73C325.13 105.81 325.25 105.87 325.37 105.93C325.75 105.68 325.72 105.23 325.98 104.92L325.76 104.75C325.59 104.74 325.34 104.67 324.93 104.5C325.08 104.48 325.23 104.48 325.38 104.47L324.89 104.1L325.44 104.47C325.67 104.45 325.88 104.41 326.03 104.28L324.6 104.02C324.71 103.92 324.81 103.83 324.92 103.74C324.36 103.37 324.03 103.51 323.57 103.57C323.44 102.95 324.67 103.12 325 103.67C325.99 102.89 326.99 102.6 327.03 101.58C326.9 101.36 326.76 101.13 326.71 100.95L327.69 101.31C327.69 101.11 327.34 100.89 326.6 100.58C327.28 100.66 327.54 101.04 328.16 101.02C324.74 99.41 331.16 100.24 328.76 99.17C331.58 99.93 334.52 99.66 336.64 100.61L336.38 100.23C338.23 100.79 336.19 101.17 338.11 101.82L335.92 102.27C336.63 102.42 337.64 102.83 337.92 102.74C337.9 102.98 337.95 103.21 339.03 103.16C333.7 104.2 337.76 107.64 334.67 109.21C334.8 109.4 335.48 109.48 335.94 109.53C334.03 109.48 336.79 110.15 336.99 110.44L334.23 110.38C334.95 110.81 335.79 110.82 336.31 110.97C336.55 112.22 333.74 112.68 335.05 113.97C334.05 114.03 332.97 113.38 332.55 113.68C335.26 113.83 333.69 115 335.29 115.23C332.67 114.99 334.46 116.44 330.64 115.32C330.29 115.72 332.23 116.11 332.62 116.07C332.34 116.56 332.21 116.99 333.35 117.73C332.36 117.79 333.72 120.35 330.71 120.13C332.63 120.29 331.64 120.41 332.4 120.92L334.18 121.07L333.82 121.72C333.95 121.9 333.87 121.92 333.71 121.88C333.6 121.98 332.73 121.61 332.22 121.8C332 122.25 332.93 122.51 333.76 122.99L334.03 122.98L334.11 123.34C334 123.57 332.61 122.08 331.54 122.64C332.01 122.76 334.16 123.78 332.88 123.68C333.07 123.31 331.86 123.06 331.32 123.08L331.21 123.3C331.31 123.33 331.41 123.37 331.52 123.4C331.39 123.39 331.28 123.37 331.18 123.36L331.06 123.61L333.27 123.96C332.83 125.31 331.32 126.43 330.73 127.83C330.81 127.85 330.9 127.88 331 127.91C331.06 128.1 330.89 128.11 330.64 128.06C330.6 128.16 330.58 128.26 330.55 128.36C330.65 128.39 330.75 128.43 330.85 128.45C330.75 128.44 330.65 128.43 330.54 128.41C330.53 128.45 330.53 128.48 330.52 128.52C329.28 128.19 329.5 128.8 329.01 129.02C330.49 129.34 331.81 129.6 332.6 129.69C333.77 130.02 331.25 129.75 331.08 129.89C329.49 129.91 331.21 130.59 331.6 130.99C332.68 131.54 332.21 131.85 331.57 132.17C332.05 132.53 332.46 132.93 333.64 133.19L332.79 134.09C332.77 133.94 332.4 133.42 331.44 133.35C331.42 133.81 331.12 133.53 330.33 133.61C330.54 134 330.27 134.29 329.9 134.52C329.92 134.54 329.95 134.55 329.97 134.57C329.94 134.56 329.91 134.54 329.88 134.53C329.49 134.76 329.01 134.92 328.83 135.07C329.16 135.28 329.32 135.47 329.15 135.63L330 135.52C330.29 135.79 329.4 136.3 330.08 136.39C329.82 136.37 329.47 136.33 329.09 136.27C329.27 136.5 329.21 136.67 328.95 136.88L329.38 137.09C329.28 137.05 329.1 136.99 328.88 136.93C328.78 137.01 328.64 137.09 328.49 137.19C328.29 137.13 327.96 136.96 327.65 136.96C328.35 137.17 329.03 137.34 329.33 137.36C328.88 137.37 328.58 137.38 328.36 137.39C328.78 137.61 329.1 137.83 329.19 138.14C329.2 138.14 329.2 138.14 329.21 138.13C329.84 138.9 329.39 139.16 329.02 139.32C328.92 139.18 328.77 139.04 328.58 138.92L328.56 139.24C328.69 139.27 328.83 139.3 328.97 139.34C328.56 139.53 328.32 139.63 329.77 140.64C329.35 140.4 328.93 140.18 328.5 139.96L328.49 140.13C327.66 139.81 327.22 139.72 327.02 139.79C327.54 140.13 328.06 140.49 328.57 140.86C328.34 140.72 327.6 140.35 326.88 140C326.88 140.22 327.09 140.6 327.28 141C327.6 141.66 327.85 142.41 327.13 142.36C327.08 142.76 326.95 143.11 326.79 143.36C327.01 143.92 327.11 144.46 327.3 144.9C327.13 144.78 326.95 144.68 326.74 144.62C327.67 145.62 327.38 145.92 326.86 145.98C326.83 146.03 326.73 146.04 326.56 146C326.14 146 325.7 145.94 325.55 146.09C325.77 146.43 326.16 146.85 326.85 147.4C326.68 147.36 326.56 147.37 326.46 147.38C326.68 147.54 326.91 147.68 327.15 147.82C326.2 147.47 326.37 148.32 326.58 149.26C326.79 150.2 327.08 151.23 326.7 151.02C326.18 151.34 325.38 149.78 324.6 149.08C324.59 149.11 324.59 149.15 324.59 149.18C324.69 149.44 324.79 149.69 324.87 149.94C325.53 150.99 326.96 152.22 325.44 151.76C325.42 151.49 325.48 151.16 325.25 151.01C325.07 151.02 324.52 150.6 323.9 150.07C323.7 150.04 323.5 150.01 323.3 149.98L323.77 150.74L322.37 149.05C322.56 149.57 322.73 150 322.59 149.85C322.46 149.7 322.33 149.43 322.19 149.12C322.17 149.3 322.2 149.54 322.28 149.77C322.15 149.58 322.02 149.37 321.89 149.16C321.7 149.17 321.41 149.02 321.13 148.84C321.41 149.51 321.77 150.12 322.27 150.53C321.87 150.32 321.47 150.08 321.09 149.83C321.32 151.02 321.34 151.47 321.35 151.89C321.34 152.32 321.29 152.68 321.14 153.66C320.77 153 320.75 152.29 320.35 151.87C320.52 153.13 319.78 152.67 319.16 152.08C318.96 151.89 318.76 151.68 318.6 151.54C318.47 151.61 318.36 151.66 318.26 151.69C318.27 151.74 318.28 151.79 318.3 151.85C317.91 152.48 318.66 153.7 318.46 154.35C318.41 154.12 318.3 153.65 318.18 153.64C318.18 154.16 318.17 154.69 318.15 155.23C317.81 154.72 318.28 154.11 317.57 153.54C317.02 154.78 316.57 155.62 315.66 154.86C315.14 155.03 315.37 155.81 315.63 156.52C315.89 157.23 316.18 157.85 315.63 157.68C315.28 156.37 314.93 154.84 314.34 154.57C314.13 155.43 314.28 156.48 313.75 156.99L313.7 156.18C313.61 156.25 313.49 156.29 313.36 156.29C313.5 155.93 313.74 155.76 313.6 155.23C313.46 154.69 313.26 155.22 313.19 155.4C313.16 155.25 313.15 155.13 313.16 155C313.01 154.98 312.88 154.88 312.8 154.56C312.64 154.7 312.47 154.63 312.3 154.52C312.13 154.4 311.95 154.22 311.75 154.12C311.53 154.63 311.63 155.57 311.87 156.5C312.13 157.57 312.58 158.6 312.7 159.02C312.24 158.19 311.89 157.95 311.59 157.6C311.29 157.25 311.03 156.79 310.87 155.5C311.11 155.39 311.34 155.26 311.57 155.14C311.35 154.67 311.17 154.41 311.02 154.3L310.7 154.25C310.54 154.32 310.41 154.53 310.28 154.71C310.06 155.04 309.88 155.25 309.78 154.09L309.14 153.98L309.76 153.79C309.75 153.59 309.74 153.35 309.73 153.08C310.06 153.32 310.47 152.91 310.6 152.21C310.58 152.16 310.57 152.11 310.55 152.06C310.48 151.87 310.43 151.69 310.37 151.59C310.32 151.66 310.27 151.72 310.22 151.78C310.19 151.98 310.18 152.33 310.18 152.87C310 152.55 309.81 152.27 309.61 152.03C309.44 152.37 309.25 152.72 309.12 153.01L309.15 152.89C308.77 152.85 308.39 152.79 308.01 152.73C308.15 152.66 308.24 152.28 308.16 152.08L307.56 152.65L307.71 152.28C307.51 152.41 307.3 152.53 307.09 152.66C307.46 152.29 307.35 151.57 307.12 151.09C306.39 150.05 304.93 154.92 304.76 152.58C304.87 152.68 304.97 152.46 305.08 152.56L304.98 151.52C304.18 153.44 303.47 153.18 302.75 152.91C302.4 152.78 302.03 152.64 301.65 152.78C301.37 152.96 301.01 153.39 300.5 154.29C300.72 153.46 300.83 153.24 301.07 153.04C301.18 152.94 301.33 152.85 301.53 152.69C301.63 152.6 301.75 152.51 301.88 152.38C302.06 152.28 302.25 152.16 302.47 151.99C302.45 151.76 302.41 151.51 302.44 151.3L302.53 150.67C302.65 150.64 302.7 150.72 302.77 150.76C302.88 150.84 303.01 150.88 303.24 150.78C303.18 149.75 303 149.78 302.53 150.06C302.09 150.35 301.52 150.98 301.13 151.38C301.22 150.75 302.76 148.72 301.89 149.03C300.74 149.33 300.59 151.77 299.9 151.95L300.59 149.88C299.22 151.01 299.48 149.48 299.11 148.97C298.92 149.06 298.76 149.23 298.62 149.42C298.6 149.22 298.53 149.14 298.41 149.12L298.03 149.94C297.57 150.85 297.78 150.11 298.04 149.22C297.41 149.52 296.49 150.39 296.45 149.83C296.75 149.5 296.87 148.52 297.06 148.04L295.75 148.8C296.26 148.49 296.77 147.59 297.32 146.68C296.69 147 295.88 147.62 295.75 146.99L295.58 147.13C295.53 147.33 295.58 147.45 295.63 147.54C295.43 147.45 294.65 147.91 294.86 146.88C295.11 146.48 295.42 146.14 295.67 145.73C295.42 146.49 295.55 146.49 295.81 146.21C295.82 146.16 295.83 146.12 295.84 146.07C295.84 146.11 295.83 146.15 295.83 146.18C295.88 146.14 295.92 146.08 295.97 146.02C295.8 145.78 295.74 145.33 295.66 144.97C295.39 145.37 295.12 145.85 294.95 146.26C294.82 145.81 294.79 145.5 294.42 145.66L294.36 145.8C294.24 145.85 294.12 145.89 294.01 145.93C293.94 145.99 293.86 146.06 293.77 146.13L293.86 145.99C293.36 146.17 292.98 146.24 292.74 146.03L291.98 147.39C291.73 146.61 289.42 148.2 290.62 145.21C289.91 146.23 290.07 144.5 289.58 144.7L289.93 143.93C289.93 143.52 289.86 143.24 289.34 143.78L289.72 143.28C289.51 143.26 289.26 143.39 289.03 143.49C289.17 142.56 289.02 142.18 288.74 142.07C288.7 142.11 288.65 142.17 288.61 142.23C288.64 142.4 288.48 143.02 288.4 143.51C288.3 143.39 288.25 143.16 288.27 142.7C288.25 142.73 288.23 142.76 288.21 142.79C288.23 142.76 288.25 142.73 288.27 142.7C288.27 142.65 288.28 142.59 288.28 142.53C288.46 142.25 288.55 142.16 288.59 142.18C288.62 142.13 288.65 142.08 288.67 142.04C288.15 141.91 287.3 142.44 286.93 142.12L287.08 141.82L285.98 142.19C286.68 141.34 285.49 142.77 285.43 142.39C284.93 142.78 284.72 142.32 284.82 141.5L284.41 141.2C285.07 140.87 285.17 140.17 285.46 139.32C285.06 139.49 284.72 139.48 284.81 138.49C284.5 138.61 284.14 138.81 283.7 139.41C283.56 139.72 283.48 140.05 283.43 140.33C283.5 140.27 283.49 140.28 283.43 140.36C283.42 140.38 283.42 140.41 283.41 140.43C283.41 140.41 283.41 140.4 283.41 140.38C283.32 140.48 283.18 140.67 283.07 140.82C282.87 140.36 282.73 140.92 282.44 141.47C283.02 139.51 282.26 140.39 282.89 138.57C282.89 138.57 282.88 138.57 282.88 138.57C282.11 140.5 282.05 137.82 281.09 140.18C281.82 138.12 280.93 139.98 281.62 138.25C281.72 138.79 282.46 138.15 283.15 137.51C283.24 137.14 283.33 136.79 283.61 136.52C283.55 136.46 283.47 136.44 283.38 136.44C283.16 136.6 282.96 136.73 282.9 136.67C282.78 136.76 282.65 136.87 282.52 137.01L282.63 136.88C281.62 136.93 282.39 135.6 281.6 135.79C281.57 136.1 281.55 136.39 281.48 136.62C280.8 137.07 280.57 137.5 280.31 137.96C280.45 137.57 280.63 137.13 280.82 136.66C280.16 136.99 279.64 136.97 279.18 136.83C279.09 136.95 278.99 137.08 278.89 137.23C279.27 137.26 279.47 137.32 279.52 137.56L278.52 137.84L278.52 137.82C278.56 137.76 278.59 137.71 278.62 137.65C278.76 137.55 278.95 137.58 278.89 137.23C278.8 137.36 278.72 137.5 278.62 137.65C278.62 137.66 278.61 137.66 278.6 137.67C278.61 137.57 278.57 137.66 278.52 137.82C278.52 137.83 278.52 137.83 278.51 137.84L278.52 137.84C278.51 137.87 278.5 137.89 278.49 137.92C278.5 137.65 278.48 137.41 278.44 137.21C278.58 137.22 278.72 137.22 278.96 137.09C278.94 136.97 278.95 136.86 278.98 136.75C278.69 136.64 278.43 136.49 278.15 136.35C278.13 136.39 278.09 136.46 278.04 136.55C277.91 136.49 277.75 136.5 277.58 136.55C277.7 136.42 277.81 136.31 277.9 136.24C277.59 136.11 277.26 136.03 276.89 136.07L276.99 136.71C276.91 136.6 276.47 136.83 276.18 136.78L275.86 137.57C275.84 137.34 275.94 137.01 276.05 136.73C275.95 136.65 275.9 136.5 275.95 136.22C276.05 136.2 276.3 135.99 276.32 136.1C276.52 135.72 276.74 135.22 276.86 134.8L276.83 134.72L276.9 134.67C276.97 134.39 276.99 134.17 276.93 134.05L276.69 134.41L276.83 134.72L276.03 135.33C276.14 135.21 276.23 135.07 276.31 134.91L276.6 134.17C276.22 133.94 275.92 135.71 275.54 135.48C275.91 134.64 275.97 134.17 275.89 133.86C275.78 133.95 275.68 134.04 275.59 134.14C275.7 134.03 275.79 133.93 275.87 133.82C275.73 133.39 275.29 133.31 275.05 132.98L274.84 133.15C274.78 133.31 274.64 133.54 274.38 133.89C274.4 133.75 274.44 133.6 274.47 133.45L273.99 133.83L274.48 133.39C274.52 133.17 274.53 132.95 274.44 132.77L273.84 134.09C273.77 133.97 273.7 133.84 273.64 133.72C273.15 134.16 273.2 134.52 273.14 134.98C272.51 134.95 272.98 133.8 273.6 133.62C273.08 132.47 273.06 131.42 272.08 131.13C271.83 131.21 271.58 131.28 271.39 131.28ZM271.83 135.88C271.85 135.81 271.87 135.76 271.88 135.66C272.61 135.52 272.35 135.25 272.02 136.04C271.94 135.93 271.88 135.89 271.83 135.88ZM272.18 137.49C272.45 137.22 272.25 136.98 272.43 136.51L273.08 136C272.85 136.82 272.68 137.29 272.18 137.49ZM273.81 134.95L274.11 134.75C273.74 135.23 273.73 135.15 273.81 134.95ZM273.54 135.08C274.26 133.99 273.93 134.62 273.81 134.95L273.17 135.37C273.52 135.04 273.88 134.53 273.54 135.08ZM274.63 136.65L275.1 136.29C274.84 136.83 274.59 137.57 274.35 137.97C274.66 137.36 274.59 136.99 274.63 136.65ZM275.8 135.77L275.1 136.29C275.32 135.83 275.56 135.53 275.8 135.77ZM275.95 138.28L274.85 139.53L275.54 138.68L275.95 138.28ZM276.86 139.68C276.36 140.19 275.81 140.76 275.51 140.79C275.91 140.38 275.89 139.67 276.45 138.96C276.35 139.73 276.49 139.92 276.86 139.68ZM276.86 139.68C277.15 139.38 277.43 139.09 277.62 138.96C277.28 139.34 277.05 139.55 276.86 139.68ZM278.04 136.55C278.23 136.64 278.37 136.88 278.44 137.21C278.22 137.19 278.03 137.14 277.61 137.56C277.38 137.49 277.82 136.89 278.04 136.55ZM277.13 136.81C277.11 136.83 277.09 136.83 277.06 136.85C277.16 136.66 277.16 136.7 277.13 136.81ZM280.2 138.15C280.23 138.09 280.27 138.02 280.31 137.96C280.28 138.03 280.25 138.11 280.23 138.18L280.2 138.15ZM278.49 137.92C278.48 138.15 278.46 138.41 278.41 138.69C278.22 138.97 278.37 138.32 278.49 137.92ZM276.96 137.19C276.97 137.18 276.99 137.16 277.01 137.15C276.93 137.34 276.87 137.46 276.96 137.19ZM277.13 136.81C277.29 136.68 277.44 136.6 277.58 136.55C277.39 136.77 277.17 137.03 277.01 137.15C277.06 137.03 277.11 136.9 277.13 136.81ZM279.59 137.64L280.2 138.15C279.99 138.5 279.73 138.87 279.22 139.26C279.46 138.32 279.58 137.83 279.52 137.56L279.73 137.5L279.59 137.64ZM280.49 138.42L279.24 139.98L279.98 138.79L280.49 138.42ZM280.7 139.54L280.17 140.08L280.77 139.03L280.7 139.54ZM327.3 144.9C327.55 145.08 327.75 145.31 327.89 145.62C327.61 145.44 327.43 145.2 327.3 144.9ZM288.4 143.51C288.54 143.68 288.78 143.61 289.03 143.49C289.01 143.61 289.02 143.69 288.99 143.82C288.35 144.53 288.31 144.11 288.4 143.51ZM323.24 106.58C323.17 106.58 323.13 106.59 323.07 106.6C323.05 106.55 323.07 106.53 323.24 106.58ZM337.92 102.74C337.93 102.62 337.96 102.5 337.89 102.41C338.03 102.61 338.02 102.71 337.92 102.74ZM283.42 140.88C283.39 140.76 283.39 140.6 283.41 140.43C283.44 140.63 283.44 140.77 283.42 140.88ZM283.07 140.82C283.1 140.87 283.12 140.92 283.14 141C282.9 141.13 282.95 141 283.07 140.82ZM283.6 141.13C283.6 141.13 283.59 141.13 283.59 141.13C283.59 141.13 283.6 141.13 283.6 141.13ZM283.59 141.13C283.48 141.1 283.41 141.09 283.35 141.08C283.38 141.05 283.4 140.98 283.42 140.88C283.45 141.01 283.5 141.1 283.59 141.13ZM325.85 118.55C325.96 118.48 325.94 118.35 325.83 118.21C325.18 118 324.46 117.78 323.7 117.66C323.56 117.83 323.27 117.95 322.45 117.72C322.08 117.93 322.51 118.21 323.12 118.53C324.29 118.53 325.76 118.73 325.85 118.55ZM324.38 115.45L325.52 115.58C324.85 115.23 324.4 115.02 324.05 114.88C323.8 115.24 324.72 115.82 325.42 116.32C325.5 116.34 325.58 116.37 325.66 116.4C325.76 116.39 325.85 116.39 325.94 116.42C325.72 116.02 325.21 115.85 324.38 115.45ZM303.9 134.24L302.94 134.87C302.99 135.11 303.06 135.33 303.16 135.49C303.45 135.05 303.71 134.62 303.9 134.24ZM327.52 104.62C325.8 103.96 326.38 104.72 325.87 104.75L326.03 104.86C326.26 104.65 326.66 104.52 327.52 104.62ZM322.86 107.73C322.85 107.74 322.83 107.75 322.8 107.75L322.86 107.73ZM335.29 115.23C335.36 115.23 335.44 115.24 335.52 115.25C335.44 115.24 335.36 115.24 335.29 115.23ZM330.71 120.13C330.68 120.13 330.66 120.13 330.63 120.13C330.66 120.13 330.68 120.13 330.71 120.13ZM307.05 137.72C307.07 137.7 307.08 137.69 307.09 137.67L307.05 137.72ZM307.3 137.83C307.3 137.8 307.31 137.77 307.32 137.74C307.31 137.77 307.31 137.8 307.3 137.83ZM285.62 140.87C285.6 140.89 285.59 140.9 285.57 140.92C285.61 141.26 285.59 141.5 285.62 140.87ZM285.37 140.08C285.22 140.24 285.13 140.42 285.05 140.61C285.26 140.3 285.39 140.34 285.47 140.5C285.62 140.15 285.68 139.88 285.37 140.08ZM332.8 121.71L333.2 121.69C332.81 121.52 332.45 121.36 332.8 121.71ZM299.06 134.14C299.15 133.87 299.22 133.6 299.21 133.36C299.33 133.53 299.23 133.82 299.06 134.14ZM281.47 140.83L281.53 140.81C281.51 140.83 281.49 140.83 281.47 140.83ZM281.53 140.81C281.64 140.72 281.79 140.34 281.92 140.08C281.89 140.33 281.79 140.64 281.98 140.67L281.53 140.81ZM283.69 141.34C283.51 141.82 284.37 140.12 284.33 140.46C285.32 140.05 282.82 142.66 283.69 141.34ZM304.76 136.52C305.18 136.02 304.73 135.75 305.19 135.16C305.17 136.21 306.08 133.67 306.2 134.58C305.36 136.45 305.41 135.99 304.76 136.52ZM339.47 101.37L340.54 101.41L339.82 101.59L339.47 101.37ZM337.99 100.15L339.69 100.78L337.74 100.38C338.19 100.43 338.06 100.25 337.99 100.15ZM324.21 96.73C324.43 96.8 325.68 97.06 325.54 97.18C325.86 97.26 324.42 97.05 324.21 96.73ZM322.37 102.52C322.44 102.52 322.5 102.53 322.6 102.52C322.91 103.19 323.11 102.87 322.27 102.74C322.35 102.64 322.37 102.57 322.37 102.52ZM320.9 103.27C321.23 103.46 321.41 103.2 321.91 103.26L322.57 103.76C321.72 103.75 321.22 103.7 320.9 103.27ZM323.77 104.2L324.04 104.45C323.47 104.21 323.56 104.18 323.77 104.2ZM323.57 103.98C324.81 104.41 324.12 104.24 323.77 104.2L323.2 103.69C323.6 103.95 324.19 104.17 323.57 103.98ZM322.33 105.43L322.79 105.79C322.2 105.67 321.42 105.61 320.98 105.48C321.65 105.63 321.99 105.47 322.33 105.43ZM323.47 106.34L322.79 105.79C323.29 105.9 323.64 106.04 323.47 106.34ZM321.08 107.11L319.59 106.36L320.58 106.82L321.08 107.11ZM319.94 108.34C319.32 107.99 318.63 107.59 318.54 107.31C319.03 107.6 319.72 107.4 320.54 107.76C319.77 107.86 319.62 108.05 319.94 108.34ZM319.94 108.34C320.31 108.55 320.65 108.74 320.84 108.89C320.38 108.67 320.12 108.49 319.94 108.34ZM323.28 108.7C323.23 108.91 323.04 109.1 322.74 109.26C322.7 109.03 322.7 108.84 322.18 108.54C322.19 108.3 322.89 108.57 323.28 108.7ZM322.8 107.89C322.77 107.87 322.76 107.85 322.73 107.83C322.95 107.88 322.91 107.89 322.8 107.89ZM322.26 111.19C322.33 111.21 322.4 111.23 322.48 111.25C322.4 111.25 322.31 111.24 322.24 111.23L322.26 111.19ZM322.06 109.48C321.83 109.53 321.58 109.57 321.29 109.59C320.97 109.48 321.64 109.47 322.06 109.48ZM322.38 107.82C322.39 107.83 322.42 107.84 322.43 107.85C322.23 107.83 322.1 107.8 322.38 107.82ZM322.8 107.89C322.96 108.01 323.08 108.14 323.16 108.26C322.89 108.13 322.6 107.98 322.43 107.85C322.56 107.87 322.7 107.89 322.8 107.89ZM322.61 110.48L322.26 111.19C321.87 111.08 321.45 110.92 320.94 110.52C321.91 110.52 322.42 110.51 322.66 110.39L322.77 110.58L322.61 110.48ZM322.08 111.55L320.25 110.72L321.58 111.14L322.08 111.55ZM321.04 112.03L320.39 111.64L321.55 111.96L321.04 112.03ZM306.73 152.87L307.09 152.66C307 152.75 306.89 152.83 306.73 152.87ZM309.12 153.01L308.98 153.6C308.9 153.55 308.98 153.31 309.12 153.01ZM322.27 150.53C322.54 150.68 322.82 150.83 323.09 150.97C322.78 150.88 322.51 150.72 322.27 150.53ZM297.65 150.73L298.47 149.64C298.14 150.21 297.94 150.88 297.65 150.73ZM319.12 120.48C318.98 120.66 319.12 120.86 319.29 121.08C319.17 121.09 319.1 121.11 318.96 121.12C318.12 120.68 318.52 120.54 319.12 120.48ZM275.97 136.05C275.95 136.12 275.96 136.16 275.95 136.22C275.9 136.23 275.88 136.21 275.97 136.05ZM275.92 120.88C275.81 120.84 275.7 120.78 275.59 120.82C275.83 120.73 275.91 120.77 275.92 120.88ZM320.42 114.99C320.53 114.94 320.68 114.9 320.85 114.87C320.67 114.95 320.53 114.98 320.42 114.99ZM320.4 114.64C320.35 114.68 320.31 114.71 320.24 114.76C320.05 114.55 320.19 114.57 320.4 114.64ZM320.22 115.23C320.22 115.23 320.22 115.23 320.22 115.23C320.22 115.23 320.22 115.23 320.22 115.23ZM320.22 115.23C320.22 115.11 320.21 115.03 320.21 114.98C320.25 115 320.32 115 320.42 114.99C320.3 115.05 320.22 115.13 320.22 115.23ZM328.97 139.34C328.98 139.33 329 139.32 329.02 139.32C329.03 139.33 329.06 139.35 329.07 139.36L328.97 139.34ZM288.22 136.51C288.18 136.39 288.05 136.37 287.88 136.44C287.52 137.03 287.12 137.66 286.82 138.38C286.95 138.54 286.99 138.86 286.57 139.59C286.68 140.01 287.06 139.66 287.52 139.15C287.81 138.02 288.37 136.65 288.22 136.51ZM284.85 137.16L285.26 136.09C284.75 136.64 284.44 137.04 284.21 137.33C284.5 137.67 285.3 136.92 285.95 136.37C285.99 136.3 286.04 136.23 286.09 136.16C286.1 136.06 286.13 135.97 286.18 135.89C285.73 136.01 285.45 136.45 284.85 137.16ZM275.15 131.41C274.08 132.92 274.95 132.55 274.86 133.05L275.01 132.92C274.86 132.65 274.84 132.23 275.15 131.41ZM331.96 133.17L331.11 132.39C330.89 132.51 330.7 132.63 330.57 132.76C331.06 132.94 331.54 133.08 331.96 133.17ZM295.75 148.8C295.74 148.81 295.72 148.81 295.71 148.82L295.75 148.8ZM276.99 136.71C277 136.72 277 136.74 277 136.77L276.99 136.71ZM287.35 126.54C287.38 126.47 287.41 126.4 287.43 126.32C287.41 126.4 287.38 126.47 287.35 126.54ZM290.96 132.2C290.95 132.22 290.94 132.25 290.94 132.27C290.94 132.25 290.95 132.22 290.96 132.2ZM329.38 137.09C329.4 137.1 329.42 137.11 329.43 137.12L329.38 137.09ZM329.33 137.36C329.36 137.35 329.39 137.35 329.42 137.35C329.4 137.36 329.37 137.36 329.33 137.36ZM308.01 152.73C307.98 152.75 307.94 152.74 307.9 152.71C307.93 152.71 307.97 152.72 308.01 152.73ZM327.48 128.67C327.32 128.59 327.07 128.54 326.8 128.52C327.03 128.57 327.25 128.62 327.48 128.67ZM298.11 138.07C298.21 137.87 298.32 137.66 298.43 137.46C298.3 137.6 298.19 137.82 298.11 138.07ZM311.85 153.89C311.74 153.68 311.66 153.43 311.59 153.28C311.23 153.59 311.44 154.03 311.6 154.31C311.7 154.17 311.79 153.99 311.85 153.89ZM322.06 147.81C322.51 148.12 322.78 148.19 322.55 147.7C322.21 147.53 322.07 147.6 322.06 147.81ZM320.98 117.12C320.96 117.11 320.94 117.1 320.92 117.09C320.6 117.21 320.36 117.25 320.98 117.12ZM321.68 116.68C321.49 116.58 321.29 116.53 321.09 116.51C321.44 116.63 321.43 116.77 321.3 116.89C321.68 116.94 321.96 116.93 321.68 116.68ZM293.01 130.56L293.09 130.17C292.83 130.51 292.58 130.82 293.01 130.56ZM322.28 149.77C322.44 150 322.6 150.22 322.77 150.4C322.52 150.27 322.37 150.02 322.28 149.77ZM298.47 149.64C298.52 149.57 298.57 149.49 298.62 149.42C298.62 149.43 298.63 149.43 298.63 149.44L298.47 149.64ZM330.85 128.45C331.14 128.48 331.41 128.48 331.65 128.41C331.51 128.57 331.2 128.55 330.85 128.45ZM319.99 113.1L320.02 113.15C320 113.13 319.99 113.12 319.99 113.1ZM320.02 113.15C320.13 113.23 320.54 113.28 320.82 113.34C320.57 113.37 320.24 113.36 320.27 113.55L320.02 113.15ZM320.04 115.37C319.54 115.31 321.4 115.73 321.06 115.77C321.7 116.63 318.55 114.85 320.04 115.37ZM329.97 134.57C330.55 134.85 330.7 134.35 331.39 134.65C330.37 134.89 333.05 135.14 332.2 135.48C330.18 135.13 330.64 135.07 329.97 134.57ZM274.98 119.04L275.28 118.01L275.28 118.75L274.98 119.04ZM273.43 120.16L274.47 118.68L273.59 120.46C273.75 120.04 273.54 120.12 273.43 120.16ZM312.94 157.12C313.21 157.26 313.34 157.3 313.46 157.85L313.45 158.34C313.27 157.94 313.11 157.54 312.94 157.12ZM306.31 152.48L306.02 154.35L305.9 154.25L306.31 152.48ZM2.3 129.34C2.04 129.15 0.35 128.8 0.71 128.27C0.28 128.14 2.3 128.26 2.3 129.34ZM0.5 115.61L1.46 117.71L0.89 117.27L0.5 115.61ZM3.31 114.62L1.52 112.92L2.25 112.95C3.95 111.84 2.03 107.93 5.08 108.43C3.65 109.39 3.89 112.59 3.31 114.62ZM12.53 107.71C12.42 107.72 12.34 107.72 12.18 107.76C12.7 105.47 11.9 106.62 13.03 106.9C12.74 107.28 12.61 107.52 12.53 107.71ZM16.08 104.84C15.87 104.23 15.16 105.14 14.44 105.04L14.23 103.41C15.57 103.31 16.27 103.42 16.08 104.84ZM13.06 102.06L13.05 101.25C13.54 102 13.36 102.1 13.06 102.06ZM13 102.8C11.74 101.53 12.56 101.99 13.06 102.06L13.1 103.76C12.89 102.93 12.32 102.26 13 102.8ZM10.65 105.71C10.17 105.55 9.85 104.76 10.34 103.56C10.53 105.21 11.37 104.57 12.3 104.25C11.81 105.43 11.14 105.88 10.65 105.71ZM1.86 108.38L1.39 107.14L2.64 106.61C3.47 106.97 1.63 107.75 1.86 108.38ZM1.87 108.39C1.87 108.39 1.87 108.38 1.86 108.38L1.87 108.39ZM17.55 97.63L17.48 96.43C18.2 96.78 19.34 96.91 19.81 97.32C19.01 96.87 18.17 97.44 17.55 97.63ZM17.4 94.61L17.48 96.43C16.87 96.12 16.58 95.64 17.4 94.61ZM10.61 98.96L11.07 102.62L10.4 99.38L10.61 98.96ZM22.77 91.91L23.69 94.35L22.99 92.86L22.77 91.91ZM27.11 87.93C27.37 89.09 27.66 90.37 27.23 91.26C27.04 90.32 25.51 90.95 24.93 89.76C26.39 89.47 27.02 88.88 27.11 87.93ZM27.11 87.93C26.96 87.23 26.82 86.59 26.85 86.09C27.11 86.84 27.16 87.42 27.11 87.93ZM19.42 92.27L21.18 92.81C20.37 93.23 19.44 92.85 19.06 92.72C19.19 92.57 19.31 92.41 19.42 92.27ZM20.22 91.31C20.1 91.45 19.82 91.78 19.42 92.27L19.36 92.25C19.86 91.72 20.12 91.43 20.22 91.31ZM19.06 92.72C19.03 92.77 19.01 92.8 18.97 92.84C18.82 92.67 18.89 92.67 19.06 92.72ZM13.79 96.88C13.79 96.87 13.79 96.86 13.78 96.86C13.27 94.99 12.01 95.38 11.36 94.2C13.57 93.52 13.45 95.6 13.78 96.86C13.79 96.86 13.79 96.87 13.79 96.88ZM16.83 94.27C16.66 93.64 15.95 93.5 15.55 93.27C15.95 92.91 16.34 92.54 16.76 92.19C16.76 92.87 16.8 93.58 16.83 94.27ZM17.22 91.8L16.76 92.19L16.76 91.24L17.22 91.8ZM22.5 86.64C23.03 85.94 23.75 85.32 24.57 84.83C24.15 85.56 23.75 86.18 23.94 87.18C23.4 87.96 22.86 87.07 22.5 86.64ZM21.56 89.34C21.57 89.4 21.55 89.46 21.56 89.52C21.31 89.36 21.39 89.33 21.56 89.34ZM29.7 78.62C29.62 78.54 29.56 78.48 29.49 78.4C29.6 78.44 29.7 78.47 29.81 78.51L29.7 78.62ZM22.5 86.64C22.16 87.1 21.92 87.59 21.75 88.09C21.56 87.47 21.46 86.89 22.15 86.56C22.21 86.34 22.34 86.44 22.5 86.64ZM26.15 84.1C26.62 83.95 27.11 83.84 27.62 83.81C27.89 84.19 26.78 84.17 26.15 84.1ZM22.09 89.57C22.09 89.53 22.08 89.48 22.08 89.44C22.35 89.53 22.51 89.61 22.09 89.57ZM21.56 89.34C21.55 88.92 21.61 88.49 21.75 88.09C21.88 88.53 22.08 89.01 22.08 89.44C21.91 89.39 21.71 89.34 21.56 89.34ZM24.3 70.35L24.82 68.24C27.3 69.91 25.55 73.18 27.64 73.86C26.33 74.06 25.49 72.81 24.75 74.99C24.99 76.97 27.78 75.46 28.83 75.68C28.47 77.46 29 77.91 29.49 78.4C26.42 77.44 21.7 74.81 21.81 72.8C24.13 72.68 24.31 70.37 23.19 69.17C23.86 69.06 23.94 70.07 24.3 70.35ZM27.51 80.87L29.7 78.62C30.06 79.03 30.36 79.6 30.29 80.91C28.72 80.81 27.89 80.79 27.2 81.16L27.46 80.55L27.51 80.87ZM27.2 81.16C26.81 82.15 26.38 83.09 26.02 84.09C26.01 84.09 26 84.09 26 84.08C25.93 84.02 25.88 83.95 25.81 83.89C25.82 83.54 26.2 82.91 25.38 83.37C25.51 83.54 25.64 83.72 25.81 83.89C25.81 83.91 25.79 83.94 25.8 83.96C25.62 84 25.75 84.05 26 84.08L26.01 84.1L26.02 84.09C26.06 84.09 26.1 84.1 26.15 84.1C25.6 84.29 25.07 84.53 24.57 84.83C24.82 84.39 25.07 83.91 25.2 83.25C23.08 84.36 24.38 80.38 22.85 83.06C22.96 81.7 21.53 81.29 22.66 79.73C24.75 80.21 24.3 81.86 25.38 83.36C26.11 82.13 26.61 81.5 27.2 81.16ZM9.51 90.87C9.4 90.81 9.3 90.74 9.11 90.73C9.36 90.44 9.44 90.58 9.51 90.87ZM14.69 91.2C13.89 91.09 12.04 91.28 11.11 91.86L11.18 92.18C9.7 92.88 9.65 91.51 9.51 90.87C10.01 91.17 9.92 91.88 10.71 91.63C11.26 91.11 10.79 90.56 10.71 90.23C12.31 90.37 13.36 90.68 14.69 91.2ZM15.08 91.35C14.94 91.3 14.82 91.25 14.69 91.2C14.91 91.23 15.06 91.28 15.08 91.35ZM17.33 84.28L16.56 83.78L18.58 83.65C18.29 84.52 17.96 85.35 17.71 86.23C17.26 85.67 16.14 85.24 17.33 84.28ZM30.83 77.53C31.16 78.47 31.48 79.4 31.84 80.34L30.66 78.87L30.83 77.53ZM33.65 76.21L33.79 77.49L32.68 76.32L33.65 76.21ZM206.82 10.62L205.89 10.78C206.11 10.69 206.4 10.63 206.82 10.62ZM199.84 9.58L200.21 8.86C200.43 8.96 200.23 9.24 199.84 9.58ZM100.15 31.43L101.05 32.98C101.79 34.64 99.9 32.86 98.37 31.83C98.96 32.01 99.56 32 100.15 31.43ZM150.58 12.38C150.81 11.86 151.06 11.28 151.33 10.67C151.45 10.84 151.56 11.02 151.67 11.19C151.28 11.61 150.91 12.01 150.58 12.38ZM154.03 5.05L152.46 3.89C153.18 4.26 153.68 4.65 154.03 5.05ZM238.36 21.25L236.63 22.35C237.16 21.64 237.01 20.52 238.36 21.25ZM59.61 53.08C59.03 53.39 58.27 53.59 57.12 53.58C56.49 52.22 58.12 52.91 59.61 53.08ZM198.82 27.06C198.72 27.44 198.42 27.72 197.89 27.88C197.93 27.44 198.29 27.2 198.82 27.06ZM59.61 53.08C60.33 52.67 60.77 52.12 61.16 51.49C61.38 51.52 61.56 51.5 61.8 51.56C61.75 53.08 60.7 53.19 59.61 53.08ZM315.34 109.19C315.39 109.08 315.38 108.97 315.42 108.86C315.53 109 315.57 109.12 315.34 109.19ZM34.71 64.03C34.98 64.34 35.08 64.6 35.11 64.85C35.08 64.64 34.97 64.38 34.71 64.03ZM61.73 38.44C61.71 38.45 61.69 38.46 61.67 38.47C61.43 38.3 61.36 38.26 61.73 38.44ZM42.12 67.48C41.79 67.61 41.45 67.68 41.11 67.7C41.61 67.54 41.92 67.48 42.12 67.48ZM41.23 68.5C41.39 68.41 41.56 68.32 41.79 68.22C41.55 68.86 41.37 68.77 41.23 68.5ZM43.06 66.86C43.06 66.86 43.05 66.86 43.05 66.87C43.05 66.86 43.06 66.86 43.06 66.86ZM43.05 66.87C42.73 67.21 42.55 67.43 42.42 67.58C42.41 67.51 42.3 67.48 42.12 67.48C42.46 67.34 42.78 67.15 43.05 66.87ZM276.02 60.45C276.04 60.36 276.02 60.29 276.03 60.22C276.76 60.32 277.08 60.48 276.02 60.45ZM111.08 8.82C111.04 8.81 110.99 8.8 110.95 8.78C110.98 8.76 110.99 8.71 111.02 8.68L111.08 8.82ZM113.19 13.55L111.08 8.82C112.06 9.06 112.76 9.16 113.4 6.74C113.3 9.02 113.23 11.28 113.19 13.55ZM203.55 10.42C203.44 10.39 203.33 10.37 203.22 10.34C203.32 10.34 203.43 10.36 203.55 10.42ZM104.32 10.72C104.37 10.73 104.41 10.76 104.46 10.8C104.41 10.77 104.37 10.74 104.32 10.72ZM103.35 11.06C103.34 11.09 103.33 11.13 103.32 11.16C103.32 11.12 103.33 11.09 103.35 11.06ZM101.63 16.39C101.67 16.31 101.69 16.21 101.71 16.11C101.68 16.2 101.65 16.3 101.63 16.39ZM33.12 65.86C33.15 65.89 33.18 65.91 33.21 65.93L33.12 65.86ZM35.11 64.88C35.11 64.89 35.11 64.89 35.11 64.9C35.11 64.89 35.11 64.89 35.11 64.88ZM35.31 69.97C35.49 70.05 35.66 70.11 35.83 70.16C35.68 70.1 35.51 70.03 35.31 69.97ZM107.57 23.39C107.97 23.23 107.67 23.1 107.52 22.68C107.55 22.93 107.57 23.17 107.57 23.39ZM107.53 23.4C107.54 23.4 107.56 23.41 107.57 23.41C107.57 23.4 107.57 23.4 107.57 23.39C107.56 23.4 107.55 23.4 107.53 23.4ZM277.05 75.18C277.03 75.21 277.02 75.23 277.01 75.26C277.02 75.24 277.03 75.21 277.05 75.18ZM287.74 97.57C287.8 97.47 287.86 97.37 287.93 97.3C287.87 97.39 287.81 97.48 287.74 97.57ZM313.05 104.03L313.07 104.21C313.05 104.15 313.04 104.08 313.05 104.03ZM283.15 64.05C283.17 64.07 283.19 64.09 283.2 64.1C283.19 64.08 283.17 64.06 283.15 64.05ZM267.36 43.64C267.44 43.67 267.53 43.73 267.61 43.8C267.53 43.75 267.44 43.69 267.36 43.64ZM248.06 28.34L247.94 28.33C247.98 28.33 248.02 28.34 248.06 28.34ZM319.43 121.93C319.52 121.86 319.52 121.77 319.38 121.65C319.4 121.74 319.41 121.83 319.43 121.93ZM193.55 7.36C193.43 6.14 192.02 7.1 191.37 7.36C192.16 8.23 192.36 9.39 193.55 7.36ZM149.23 7.9C148.5 7.18 147.85 6.87 147.47 7.53C148.13 8.02 148.72 8.08 149.23 7.9ZM46.99 61.24C47 61.28 47 61.31 47.01 61.35C47.84 61.11 48.34 61.08 46.99 61.24ZM44.66 62.24C44.66 62.6 44.86 62.79 45.12 62.93C44.91 62.45 45.29 62.08 45.84 61.79C45.38 61.51 44.91 61.44 44.66 62.24ZM271.76 74.25L271.69 74.94C272.31 74.77 272.88 74.65 271.76 74.25ZM152.59 5.8C152.55 5.43 152.51 5.07 152.35 4.73C152.81 5.09 152.81 5.48 152.59 5.8ZM236.63 22.35C236.56 22.45 236.48 22.54 236.38 22.62C236.36 22.6 236.33 22.59 236.31 22.56L236.63 22.35ZM67.8 27.02C67.45 26.78 67.02 26.62 66.42 26.63C67.19 26.34 67.59 26.58 67.8 27.02ZM37.96 73.17L38.03 73.01C38.03 73.06 38.01 73.11 37.96 73.17ZM38.03 73.01C38.06 72.73 37.54 72.5 37.24 72.25C37.72 72.21 38.2 72.33 38.64 71.75L38.03 73.01ZM20.49 76.11L19.75 75.58C19.71 75.25 20.04 75.19 20 74.85C20.96 74.32 21.08 75.33 20.49 76.11ZM30.36 70.48C30.3 70.52 30.27 70.57 30.23 70.62C30.72 69.6 31.03 68.54 32.3 69.6C32.02 70.93 31.83 72.3 30.36 70.48ZM29.45 71.61C29.73 71.43 29.93 71.15 30.1 70.85C29.87 71.45 30.05 72.34 29.45 71.61ZM43.7 66.51C44.36 66.81 42.51 65.06 43.16 65.04C44.41 62.36 44.71 68.45 43.7 66.51ZM28.75 66L29.5 67.58L27.75 66.45L28.75 66ZM33.48 62.98C33.57 62.68 33.6 62.39 33.34 62.16L35.03 61.36C35.47 61.77 34.32 62.28 33.48 62.98ZM32.72 64.23C32.71 63.77 33.06 63.36 33.48 62.98C33.34 63.48 32.92 64 32.72 64.23ZM30.69 63.43L29.7 64.22L29.02 64.3L30.69 63.43ZM49.53 47.72C49.95 47.07 50.63 47.1 50.89 47.78L49.69 49.39C49.04 49.02 49.46 48.39 49.53 47.72ZM41.72 47.32L43.27 49.32C42.61 48.99 42.29 48.66 41.61 48.66L41.72 47.32ZM44.94 42.9C46.9 41.27 45.5 43.93 45.77 44.6C43.99 45.28 45.18 43.56 44.94 42.9ZM74.05 35.13L72.02 31.51L72.44 31.25L74.05 35.13ZM92.36 14.89C92.61 13.89 90.4 14.69 90.58 13.57C93.07 13.96 90.09 11.28 92.72 11.35C94.28 13.67 93.36 13.4 92.36 14.89ZM91.89 15.74C92.04 15.4 92.2 15.12 92.36 14.89C92.31 15.09 92.19 15.35 91.89 15.74ZM311.21 154.33C311.28 154.63 311.42 154.56 311.55 154.39L311.21 154.33ZM311.57 153.24C311.49 153.09 311.42 153.06 311.34 153.31L311.57 153.24ZM189.18 2.87C188.47 2.61 188.12 2.49 188.02 1.77L188.27 1.17L189.18 2.87ZM208.14 11.29L208.28 8.81L208.61 8.98L208.14 11.29ZM224.85 12.54C225.45 12.69 226.15 12.7 226.62 13.02C225.67 15.48 225.92 13.28 224.85 12.54ZM224.32 12.33C224.53 12.36 224.7 12.44 224.85 12.54C224.66 12.49 224.48 12.43 224.32 12.33ZM300.1 153.46C299.95 153.47 299.72 153.59 299.64 153.48C300.54 151.74 299.94 153.17 300.1 153.46ZM300.21 153.51C300.15 153.52 300.12 153.5 300.1 153.46C300.14 153.46 300.18 153.47 300.21 153.51Z" />
</svg>